<svg width="360" height="295" fill="none" xmlns="http://www.w3.org/2000/svg">
  <path d="M10.195 131.811c-.446.148-.915-.025-1.113-.371a1.003 1.003 0 01.274-1.408c20.75-13.977 43.594-22.395 54.633-26.394 3.094-1.111 6.014-2.246 6.559-2.592.297-.346.743-.494 1.213-.321.494.247.691.84.517 1.31-.322.765-1.263 1.16-7.599 3.431-10.865 4.024-33.586 12.319-54.212 26.172a.583.583 0 01-.272.173z" fill="#7B3031"/>
  <path d="M79.95 100.802l-.15.049c-.32.024-29.122 3.919-51.747 14.487-.495.247-1.064.024-1.31-.47-.247-.494-.024-1.062.471-1.309 22.922-10.666 52.045-14.586 52.367-14.61.544-.1 1.013.321 1.112.865-.026.42-.298.839-.744.988z" fill="#7B3031"/>
  <path d="M210.757 109.586s-2.365 10.993-1.802 16.157c.562 5.164 8.457 21.472 9.99 22.115 1.533.643-1.198-11.044-2.57-21.371-1.446-10.303-2.403-16.159-2.403-16.159l-3.215-.742z" fill="#F26F4D"/>
  <path d="M219.414 148.772c-.297.099-.544.099-.841-.05-2.201-.914-10.12-18.038-10.583-22.905-.587-5.238 1.703-15.959 1.802-16.404.149-.544.62-.865 1.139-.79l3.191.668c.445.099.717.42.766.815.024.074.981 5.93 2.403 16.158.466 3.385 1.079 6.968 1.644 10.155 1.768 10.031 1.964 11.859.479 12.353zm-7.941-38.024c-.573 2.742-2.018 10.795-1.578 14.847.44 4.299 5.892 15.74 8.435 19.916-.195-2.076-.785-5.584-1.35-8.771-.564-3.188-1.178-6.77-1.668-10.229-1.177-8.252-1.987-13.663-2.256-15.467l-1.583-.296z" fill="#7B3031"/>
  <path d="M221.639 111.813s-1.887 5.484-1.624 12.229c.263 6.745 3.09 20.704 4.08 20.704.989.001 1.073-7.189 1.649-12.648.477-5.51-1.315-15.862-.966-18.036.349-2.174-.291-4.842-.291-4.842l-2.848 2.593z" fill="#F26F4D"/>
  <path d="M224.489 145.685c-.148.05-.222.074-.395.05-.743-.001-1.559.024-3.28-8.624-.786-3.854-1.62-9.339-1.788-13.069-.288-6.819 1.574-12.378 1.673-12.575.025-.173.149-.297.273-.42l2.774-2.569c.248-.247.644-.296.916-.222.371.124.618.371.642.692.049.148.689 2.817.34 5.238-.15.79.119 3.335.363 6.053.391 3.904.854 8.771.603 11.982-.175 1.458-.202 3.113-.353 4.645-.38 6.794-.58 8.424-1.768 8.819zm-2.01-33.328c-.372 1.111-1.739 5.929-1.499 11.611.216 5.114 1.837 13.959 2.921 17.962.15-1.532.301-3.558.402-5.238.126-1.605.177-3.187.328-4.718.301-3.064-.188-7.758-.554-11.587-.342-3.509-.512-5.51-.363-6.548.125-.864.102-1.927.004-2.717l-1.239 1.235z" fill="#7B3031"/>
  <path d="M231.206 117.029s-3.654 13.315-4.008 19.195c-.329 5.954 2.552 16.603 4.38 18.629 1.852 2.101.204-4.842.333-8.918.153-4.003 2.657-26.978 2.657-26.978l-3.362-1.928z" fill="#F26F4D"/>
  <path d="M232.516 156.188c-.52.172-1.089-.05-1.607-.619-2.075-2.273-4.98-13.243-4.7-19.345.329-5.954 3.859-18.899 4.008-19.443.074-.271.322-.518.595-.691.297-.099.618-.124.841.049l3.46 1.978c.322.222.519.568.494.988 0 .247-2.504 22.976-2.682 26.904-.027 1.408.095 3.261.315 4.917.367 3.335.464 4.867-.724 5.262zm-.743-37.702c-.92 3.434-3.332 13.044-3.585 17.738-.229 4.768 1.666 12.699 3.269 16.282.001-.494-.098-1.037-.171-1.507-.147-1.68-.367-3.582-.315-5.164.178-3.681 2.157-22.531 2.607-26.384l-1.805-.965z" fill="#7B3031"/>
  <path d="M239.16 126.567s-3.745 7.09-3.185 14.23c.559 7.14 5.561 22.435 6.129 23.892.641 1.433 3.515-2.321 2.973-3.458-.543-1.136-.853-10.006-2.598-18.727-1.745-8.722-.599-14.948-.599-14.948l-2.72-.989z" fill="#F26F4D"/>
  <path d="M243.017 165.95c-.817.271-1.583-.05-1.854-.866-.74-1.729-5.693-17.122-6.228-24.189-.534-7.313 3.186-14.476 3.335-14.773.272-.419.767-.666 1.237-.493l2.72.989c.47.173.717.667.617 1.112.025.074-1.022 6.102.624 14.527 1.033 5.09 1.496 10.204 1.912 13.935.195 2.075.415 4.224.637 4.644.272.569.172 1.26-.126 2.1-.571 1.013-1.686 2.619-2.874 3.014zm-3.364-38.147c-.894 2.025-3.102 7.534-2.714 12.92.462 6.597 4.848 20.038 5.858 23.077.57-.519 1.314-1.754 1.339-2.174-.296-.642-.418-2.001-.735-5.188-.391-3.657-.904-8.672-1.912-13.688-1.352-7.041-.998-12.427-.773-14.477l-1.063-.47z" fill="#7B3031"/>
  <path d="M244.858 139.243c.272.321-1.94 7.807-.045 15.738 1.894 7.931 11.35 22.979 11.35 22.979s-.435-8.498-1.667-12.205c-1.232-3.706-6.179-23.052-6.179-23.052l-3.459-3.46z" fill="#F26F4D"/>
  <path d="M256.557 178.899c-.074.025-.074.025 0 0a.929.929 0 01-1.137-.445c-.37-.617-9.505-15.197-11.449-23.276-1.476-6.177-.578-12.155-.104-14.7.025-.42.124-.864.149-1.037-.098-.297.026-.667.274-.914.371-.371.965-.321 1.336.049l3.459 3.46c.123.124.172.272.246.494.074.223 4.923 19.272 6.155 22.979 1.282 3.854 1.716 12.106 1.765 12.501-.05.346-.323.766-.694.889zm-10.91-37.531c-.474 2.792-1.074 7.93.254 13.415 1.305 5.411 6.191 14.159 9.079 19.125-.219-2.643-.66-5.954-1.3-7.881-1.183-3.558-5.466-20.409-6.106-22.83l-1.927-1.829zM207.929 96.12c.148.445.629 10.822 1.937 13.762 1.307 2.941 3.928 3.88 3.928 3.88s2.527-2.815 3.078-7.855c.477-5.015-1.789-13.317-1.789-13.317l-7.154 3.53z" fill="#7B3031"/>
  <path d="M214.115 114.726c-.223.074-.471.074-.668-.025-.099-.049-3.091-1.113-4.522-4.424-1.036-2.372-1.522-8.795-1.839-12.23-.074-.716-.097-1.531-.146-1.68-.148-.444.1-.938.521-1.16l7.178-3.457c.273-.173.545-.099.817-.025.296.149.445.346.543.643.123.37 2.339 8.524 1.813 13.638-.551 5.287-3.202 8.226-3.301 8.424-.124.123-.248.247-.396.296zm-5.147-17.963c.024.322.048.643.072 1.211.194 2.816.755 9.462 1.618 11.563.715 1.655 2.025 2.619 2.742 3.039.719-1.062 2.033-3.31 2.384-6.719.351-3.656-.879-9.339-1.445-11.785l-5.371 2.691zM224.313 90.838s-3.57 5.88-3.578 12.303c.016 6.498 1.544 11.093 1.544 11.093s2.548-.024 3.662-.641c1.114-.617 4.632-4.421 4.167-8.3-.44-3.805.162-10.179.162-10.179l-5.957-4.276z" fill="#7B3031"/>
  <path d="M225.767 114.804c-1.337.444-3.39.468-3.465.493-.42-.025-.84-.297-.963-.668-.074-.222-1.627-4.892-1.569-11.414.009-6.67 3.579-12.55 3.728-12.846a1.32 1.32 0 01.668-.47.823.823 0 01.792.15l5.981 4.35c.321.222.42.518.37.864.024.074-.553 6.275-.137 10.006.464 4.373-3.425 8.547-4.663 9.288l-.742.247zm-2.744-1.558c.643-.049 1.509-.172 2.103-.37l.371-.123c.842-.445 4.038-3.977 3.671-7.312-.342-3.261-.064-8.128.112-9.833l-4.573-3.336c-.942 1.877-2.878 6.225-2.908 10.845-.106 4.891.805 8.622 1.224 10.129zM236.351 98.526s-2.802 5.212-4.937 10.696c-2.11 5.558-.433 9.61-.433 9.61s1.78.89 2.671.594c.891-.296 2.401-1.21 4.583-4.816 2.108-3.582 3.922-10.277 3.922-10.277l-5.806-5.807z" fill="#7B3031"/>
  <path d="M233.973 120.389c-1.188.395-2.944-.42-3.438-.668-.198-.099-.346-.296-.494-.494-.074-.222-1.825-4.497.434-10.351 2.134-5.484 4.986-10.795 4.986-10.795a.884.884 0 01.743-.494c.322-.025.594.05.841.296l5.731 5.833c.248.247.371.617.222.914-.075.272-1.815 6.942-3.997 10.548-1.735 2.964-3.395 4.668-5.028 5.211zm-2.224-2.224c.668.272 1.385.445 1.607.371 1.114-.37 2.502-1.901 3.989-4.371 1.686-2.866 3.152-7.881 3.6-9.511l-4.448-4.448c-.942 1.877-2.778 5.533-4.292 9.411-1.489 4.2-.727 7.486-.456 8.548zM248.215 107.176s-6.316 5.557-8.227 10.226c-1.936 4.595-2.142 11.166-2.142 11.166s2.102.866 2.671.841c.519.074 6.632-1.629 8.298-8.521 1.691-6.818-.6-13.712-.6-13.712z" fill="#7B3031"/>
  <path d="M241.678 130.175c-.594.198-1.064.272-1.311.272-.594-.05-2.201-.668-2.869-.94-.371-.124-.667-.519-.642-.939.001-.247.207-6.819 2.192-11.512 2.035-4.793 8.277-10.325 8.524-10.572.248-.247.57-.271.916-.222.346.05.593.297.716.667.099.297 2.316 7.215.625 14.28-1.367 5.065-5.106 7.954-8.151 8.966zm-1.16-1.754l.52-.173c.891-.296 5.42-2.049 6.788-7.607 1.169-4.669.358-9.339-.158-11.637-1.858 1.853-5.475 5.607-6.815 8.769-1.464 3.532-1.915 8.374-1.992 10.128.668.272 1.41.52 1.657.52zM252.527 120.148s-7.981 11.955-8.655 16.13c-.599 4.151.66 6.449.66 6.449l1.878 1.186s2.62 1.928 5.449-4.445c2.828-6.374.668-19.32.668-19.32z" fill="#7B3031"/>
  <path d="M248.437 145.05c-1.336.444-2.35-.124-2.572-.297l-1.879-1.187-.37-.37c-.025-.074-1.432-2.57-.783-7.066.624-4.324 8.432-16.057 8.755-16.575.223-.321.644-.544 1.014-.42.371.124.717.42.766.815.099.544 2.111 13.293-.718 19.913-1.167 2.94-2.579 4.644-4.213 5.187zm-3.113-2.916l1.656 1.013s.025.074.099.05c0 0 .297.148.817-.025.594-.197 1.733-.987 3.097-4.075 1.936-4.348 1.401-12.155.986-16.133-2.603 4.076-6.619 10.844-6.969 13.512-.548 3.064.092 4.991.314 5.658zM104.416 138.436c-5.568 1.851-10.914 3.381-16.11 4.615-25.886 6.218-39.339 2.706-45 .061-4.575-2.102-7.49-5.166-8.03-8.279-1.03-6.325 5.139-13.809 10.415-19.02 5.796-5.632 12.506-10.25 14.684-10.644.544-.099 1.063.222 1.162.766.098.543-.224 1.062-.769 1.161-2.944.567-25.255 17.039-23.562 27.342.417 2.496 2.987 5.016 6.893 6.846 8.852 4.054 44.835 13.082 136.465-41.91 29.908-17.928 74.12-40.2 115.118-44.362 24.643-2.513 36.363 2.728 36.857 2.975.494.247.692.84.518 1.31a1.076 1.076 0 01-1.312.518c-.099-.05-11.794-5.216-36.041-2.753-40.577 4.188-84.443 26.262-114.054 44.091-28.868 17.335-54.736 29.804-77.234 37.283z" fill="#7B3031"/>
  <path d="M109.527 108.42s-4.289 7.188-6.468 8.571c-2.179 1.382-5.12-.274-5.12-.274l4.59-10.992 6.998 2.695z" fill="#E25C32"/>
  <path d="M102.587 118.3c-2.45.814-5.07-.619-5.17-.669a1.056 1.056 0 01-.418-1.26l4.591-10.992c.174-.47.743-.741 1.237-.494l6.973 2.621c.272.074.519.321.618.617.099.297.024.569-.051.84-.421.717-4.462 7.411-6.765 8.917-.347.198-.644.296-1.015.42zm-3.411-2.076c.742.247 1.83.544 2.795.223.223-.074.371-.124.57-.272 1.436-.889 4.063-4.89 5.501-7.262l-4.995-1.879-3.871 9.19z" fill="#7B3031"/>
  <path d="M100.504 102.858s-24.641 1.525-25.731 2.463c-1.09.939-9.875 3.283-9.875 3.283s-5.695 3.951-6.385 2.123c-.69-1.829-2.813-5.733-.314-6.399 2.425-.642 5.05-1.679 5.05-1.679s6.235-1.579 11.357-2.541c5.197-.987 28.577-2.091 28.577-2.091l-2.679 4.841z" fill="#E25C32"/>
  <path d="M100.8 103.748l-.223.074c-9.055.541-23.28 1.648-25.211 2.29-.322.272-1.04.593-3.12 1.284-2.598.864-6.087 1.777-6.904 2.048-.619.371-2.773 1.828-4.555 2.42-2.227.741-2.968-.248-3.166-.841-.074-.222-.197-.593-.37-.865-.74-1.729-1.652-3.978-.932-5.534.273-.667.867-1.112 1.634-1.284.693-.148 1.51-.42 2.326-.691 1.411-.469 2.574-.938 2.574-.938l.149-.05c.074-.024 6.31-1.604 11.433-2.566 5.196-.986 27.759-2.067 28.724-2.14.322-.025.717.172.89.444.173.272.222.667-.001.989l-2.654 4.915a1.262 1.262 0 01-.594.445zm-26.15.461c2.674-.888 21.155-2.093 25.188-2.364l1.513-2.89c-5.517.27-22.44 1.204-26.696 2.043-4.8.937-10.591 2.368-11.284 2.516-.297.099-1.312.519-2.649.963-.89.296-1.707.568-2.474.741l-.075.024c-.148.05-.198.148-.272.173-.323.766.516 2.792.984 3.953.099.297.272.569.346.791.148-.049.395-.049.767-.173 1.708-.568 4.11-2.272 4.184-2.296.074-.025.198-.148.297-.099.074-.025 4.083-1.11 6.979-2.073 2.079-.691 2.475-.988 2.549-1.012.223-.074.42-.223.644-.297z" fill="#7B3031"/>
  <path d="M198.646 100.936s1.454 4.62-.652 6.719c-2.106 2.1-3.491 2.149-3.491 2.149l-35.018 28.599 17.563 20.585 20.202 7.195 12.864.251-12.372 1.973-22.85-6.974-18.501-21.92s-.665-2.248 2.034-4.298c2.7-2.05 31.352-24.993 31.352-24.993s.725-5.262 2.434-7.065c1.709-1.803 5.797-6.62 5.797-6.62l.638 4.399z" fill="#E25C32"/>
  <path d="M210.459 167.472l-.149.049-12.421 1.825a.6.6 0 01-.42-.025l-22.85-6.974c-.173-.025-.371-.124-.445-.346l-18.501-21.92c-.123-.123-.148-.197-.197-.346-.05-.148-.813-2.94 2.406-5.409 2.502-1.902 27.96-22.301 31.03-24.722.2-1.383.972-5.509 2.632-7.213 1.635-1.778 5.748-6.52 5.748-6.52.223-.322.693-.396 1.039-.346.371.123.643.445.692.84l.563 4.423c.271.815 1.428 5.287-.925 7.633-1.734 1.729-3.046 2.248-3.739 2.396l-34.027 27.858 16.747 19.621 19.832 7.072 12.715.3c.495 0 .964.42.964.914.024.322-.249.742-.694.89zm-12.642-.078l.619-.124h-.989l.37.124zm-22.404-6.875l19.561 6.009-18.249-6.527c-.173-.025-.297-.149-.42-.272l-17.563-20.585a1.328 1.328 0 01-.246-.742c0-.247.149-.543.347-.691l35.018-28.599c.124-.124.346-.198.594-.198l.222-.074c.446-.148 1.362-.617 2.6-1.852 1.363-1.358.749-4.694.404-5.732l-.05-.148-.269-2.298c-1.387 1.532-3.344 3.829-4.385 4.916-1.214 1.309-1.986 5.187-2.185 6.571-.001.247-.174.469-.372.617-1.164.963-28.703 23.042-31.426 25.018-1.709 1.309-1.76 2.643-1.687 3.112l18.106 21.475z" fill="#7B3031"/>
  <path d="M185.681 102.612s-4.511 6.274-5.354 7.953l-34.542 23.831s-.869 2.1.193 4.052c1.135 1.927 13.335 18.039 13.335 18.039l18.957 13.866 11.23.794-9.941-3.116-18.042-13.1-12.569-17.965 32.932-22.472s7.475-2.814 9.483-5.704c1.983-2.964-.163-7.931-.163-7.931l-5.519 1.753z" fill="#E25C32"/>
  <path d="M189.796 172.036c-.148.049-.223.074-.396.049l-11.23-.794c-.173-.024-.347-.049-.47-.173l-18.957-13.865c-.099-.05-.123-.124-.222-.173-.469-.667-12.225-16.186-13.36-18.113-1.333-2.274-.291-4.843-.241-4.942.099-.197.223-.321.347-.444l34.343-23.683c1.091-1.927 5.131-7.632 5.305-7.855.099-.197.321-.271.47-.321l5.569-1.851c.519-.173 1.014.074 1.261.569.074.222 2.343 5.559.062 8.869-2.057 2.989-8.69 5.606-9.854 6.075l-32.065 21.855 11.902 16.951 17.82 12.927 9.743 3.017c.47.173.791.642.691 1.087-.099.445-.347.692-.718.815zm-11.129-2.721l2.375.198-1.756-.568-.297-.149-18.067-13.173c-.099-.05-.123-.124-.247-.247l-12.568-17.965c-.149-.198-.247-.494-.173-.766.075-.272.174-.469.447-.642l32.931-22.473.223-.074c1.98-.74 7.525-3.16 9.012-5.383 1.165-1.704.649-4.496.082-6.201l-4.306 1.432c-1.338 1.926-4.486 6.348-5.081 7.533-.099.198-.149.297-.298.346l-34.294 23.584c-.149.543-.398 1.779.219 2.891.839 1.532 9.681 13.245 13.163 17.767l18.635 13.89z" fill="#7B3031"/>
  <path d="M173.43 106.685c-1.089.444-3.32 3.408-4.114 5.73l-38.228 23.657s-3.122 3.754-.601 5.633c2.447 1.903 49.773 39.099 49.773 39.099s9.618 4.128 15.406 5.168c5.787 1.039 9.648.25 9.648.25l-4.228-1.805 5.839-1.036s-5.984-1.632-11.845-3.388c-5.836-1.682-12.169-2.375-12.169-2.375s-47.968-37.889-47.424-38.234c.52-.42 44.988-28.868 44.988-28.868l1.865-6.794c-.149.05-4.95 1.234-8.91 2.963z" fill="#E25C32"/>
  <path d="M205.609 187.111l-.148.05c-.149.049-4.108.789-10.044-.201-5.862-1.015-15.208-5.069-15.653-5.168l-.198-.099c-.444-.346-47.326-37.196-49.773-39.099a3.419 3.419 0 01-1.333-2.274c-.244-2.223 1.54-4.545 1.788-4.792.049-.099.123-.123.247-.247l37.956-23.484c.992-2.47 3.173-5.335 4.535-5.953 1.237-.493 2.549-1.012 4.108-1.53 2.599-.864 4.727-1.407 4.801-1.432.297-.098.668.025.915.272a.96.96 0 01.246.989l-1.864 6.793c-.074.272-.198.395-.396.544-13.742 8.766-38.749 24.817-43.973 28.201 4.67 4.127 29.359 23.825 46.238 37.146 1.36.124 6.876.842 12.069 2.326 5.762 1.706 11.747 3.339 11.821 3.314.445.099.766.568.741.988 0 .495-.372.865-.842.939l-2.574.444 1.064.47c.272.074.593.296.692.593.345.543.097 1.037-.423 1.21zm-24.878-7.122c1.138.445 9.767 4.079 15.109 5.019 2.028.396 3.884.52 5.368.521l-.47-.173a1.09 1.09 0 01-.592-1.038c.025-.42.397-.791.792-.84l1.559-.271c-2.176-.594-4.921-1.41-7.666-2.226-5.663-1.657-11.97-2.276-11.97-2.276a.942.942 0 01-.495-.248c-.123-.123-11.961-9.441-23.725-18.783-24.12-19.228-24.12-19.475-24.119-20.216a.85.85 0 01.397-.791c.52-.42 38.873-24.941 44.716-28.695l1.293-4.792c-.817.271-1.881.543-2.995.913a66.479 66.479 0 00-3.96 1.481c-.718.321-2.824 2.915-3.643 5.163-.1.197-.199.395-.397.543l-38.178 23.558c-.446.642-1.363 2.1-1.241 3.211.049.396.246.742.568.964 2.347 1.854 47.104 37.023 49.649 38.976z" fill="#7B3031"/>
  <path d="M166.799 106.831s-4.579 2.345-4.758 6.274l-37.205 17.307s-1.24 2.471-.624 4.324c.616 1.853 14.002 38.644 16.894 40.399 0 0 2.223 2.471 5.264 4.176 3.041 1.706 7.763 4.005 12.585 5.612l-4.151-4.547 5.959 2.547s-1.158-3.484-7.265-6.475a146.916 146.916 0 00-11.571-5.044s-13.707-36.519-12.494-37.581c1.214-1.062 31.588-16.346 31.588-16.346l13.69-7.185c-.049.099-2.544-2.941-7.912-3.461z" fill="#E25C32"/>
  <path d="M159.275 185.887c-.223.074-.396.049-.643.049-4.995-1.632-9.742-4.005-12.783-5.711-2.942-1.656-5.091-3.905-5.486-4.349-3.682-3.139-16.993-40.449-17.116-40.819-.714-2.15.551-4.793.699-5.09.1-.197.298-.345.496-.494l36.71-17.06c.624-4.077 5.055-6.373 5.277-6.447.149-.049.372-.123.545-.099 5.763.471 8.505 3.758 8.554 3.906.173.272.272.569.197.84-.074.272-.223.569-.52.667l-13.69 7.186c-11.437 5.777-28.592 14.444-31.118 16.024.268 3.286 7.565 23.498 12.372 36.223 1.41.519 6.157 2.398 11.275 4.895 6.403 3.139 7.734 6.895 7.709 7.068.123.371-.001.741-.323 1.013a1.102 1.102 0 01-1.089.197l-1.656-.766.914 1.013c.123.123.247.247.321.469a1.036 1.036 0 01-.645 1.285zm-33.697-54.733c-.323.765-.745 2.223-.4 3.261.32.963 3.722 10.451 7.47 19.989 6.755 17.345 8.583 19.619 9.003 19.891.099.049.124.123.223.173 0 0 2.099 2.347 5.017 3.929 2.224 1.236 5.216 2.794 8.628 4.129l-1.408-1.508c-.272-.321-.37-.864-.073-1.21.273-.42.743-.494 1.213-.321l2.695 1.162c-.988-.989-2.545-2.2-4.795-3.263-6.008-2.941-11.472-4.994-11.472-4.994-.272-.074-.52-.321-.593-.543-.025-.074-3.477-9.217-6.705-18.433-6.779-19.149-6.209-19.667-5.491-20.235 1.263-1.161 26.711-13.902 31.786-16.494l12.427-6.519c-1.013-.816-3.04-1.953-6.033-2.275-.891.543-3.813 2.42-4.014 5.286-.05.346-.273.667-.546.84l-36.932 17.135z" fill="#7B3031"/>
  <path d="M157.618 109.719l-30.792 12.294s-11.727 20.28-11.137 22.8c0 0-.497 1.976-.428 5.658.045 3.607 1.739 13.415 1.739 13.415s.403-5.731 1.84-6.867c0 0 2.739 5.51 2.959 7.412 0 0-.21-9.561-3.045-17.344l10.618-23.121 22.869-7.603 13.81-4.591-2.021-6.078-6.412 4.025z" fill="#E25C32"/>
  <path d="M122.119 165.395l-.223.074c-.569.024-1.013-.322-1.037-.89-.098-1.037-1.183-3.558-2.047-5.411-.397 1.285-.697 3.113-.798 4.793 0 .494-.446.889-.941.889-.495 0-.939-.346-1.013-.816-.049-.395-1.645-9.907-1.714-13.588-.07-3.187.279-5.114.403-5.732-.02-3.286 7.791-17.242 11.237-23.245a.89.89 0 01.52-.42l30.717-12.269 6.289-3.902c.272-.173.594-.197.866-.123.272.074.519.321.617.618l2.021 6.078a1.034 1.034 0 01-.645 1.284l-36.307 12.071-10.222 22.331c2.761 7.808 2.972 16.875 2.946 17.295-.025.42-.298.839-.669.963zm-3.6-9.34c.149-.049.322-.025.495 0 .272.074.569.223.667.519.05.148.223.42.445.84-.442-3.063-1.154-6.695-2.338-10.006-.073-.223-.098-.544.001-.741l10.619-23.122c.074-.272.347-.444.569-.519l35.714-11.872-1.306-3.929-5.348 3.26-.148.049-30.495 12.196c-5.504 9.485-11.01 20.206-10.888 21.812a.601.601 0 01-.025.42s-.424 1.951-.354 5.385c.072 1.705.439 4.793.807 7.635.322-.766.694-1.384 1.14-1.779.247 0 .371-.123.445-.148z" fill="#7B3031"/>
  <path d="M149.135 107.27s-30.264 6.687-33.729 7.921-10.938 2.813-10.938 2.813l-26.403 24.253s4.307-2.173 5.421-3.037c1.09-.938 22.362-17.312 22.362-17.312s14.278-2.442 19.374-2.984c0 0 22.866-5.379 24.326-5.947 1.387-.543 5.003-4.05 5.003-4.05s-3.092-.371-5.416-1.657z" fill="#E25C32"/>
  <path d="M78.385 143.221c-.446.148-.915-.025-1.113-.371-.296-.395-.221-.914.15-1.285l26.403-24.253c.124-.123.273-.173.496-.247.074-.025 7.473-1.579 10.789-2.764l.149-.049c4.083-1.358 32.492-7.674 33.655-7.896.223-.074.495 0 .692.099 2.126 1.187 4.872 1.509 4.971 1.558.346.05.692.346.791.643.098.296-.001.741-.249.988-.619.617-3.889 3.68-5.349 4.248l-.149.049c-2.227.74-23.336 5.7-24.251 5.922l-.149.049c-4.627.469-17.098 2.639-19.053 2.96-7.404 5.754-21.247 16.447-22.089 17.139-1.164.963-5.125 2.938-5.62 3.185l-.074.025zm26.552-24.303l-16.348 15.066a2681.273 2681.273 0 0116.592-12.842c.124-.124.272-.173.421-.222.544-.099 14.277-2.442 19.374-2.984 7.573-1.777 22.322-5.28 24.029-5.848.644-.296 2.08-1.433 3.344-2.593-.99-.248-2.201-.668-3.363-1.187-3.391.715-29.399 6.563-33.111 7.797l-.149.049c-3.093 1.111-9.404 2.468-10.789 2.764z" fill="#7B3031"/>
  <path d="M186.149 46.48s4.545 5.98 3.623 10.897c-.922 4.916-1.211 18.183 1.351 26.633 2.561 8.45 7.972 13.813 1.485 18.357-6.488 4.544-32.468 7.995-47.534 7.817-15.065-.177-43.911-.136-48.164-2.015-4.277-1.953-4.321-6.054-7.238-7.883-2.917-1.83-15.874-5.836-23.669-4.48a720.16 720.16 0 01-15.465 2.343l15.273-6.888-1.382-2.669s7.7-4.123 13.239-2.837l-1.16-2.743s8.91-2.715 13.61-2.466l-1.381-2.669s7.203-3.135 11.879-3.95l-1.359-1.111s6.93-2.222 10.715-1.998l-.914-1.26s10.768-4.815 16.556-4.27l-.419-1.013s1.362-1.605 7.325-2.024c5.962-.418 21.927-6.219 33.657-9.625 11.731-3.406 17.105-7.58 19.972-6.146z" fill="#E25C32"/>
  <path opacity=".6" d="M165.979 52.774c-11.731 3.406-27.695 9.207-33.657 9.626-5.963.418-7.326 2.023-7.326 2.023l.42 1.013c-5.813-.619-16.556 4.27-16.556 4.27l.913 1.26c-3.71-.248-10.714 1.998-10.714 1.998l1.359 1.112c-4.677.814-11.88 3.95-11.88 3.95l1.382 2.668c-4.7-.248-13.61 2.467-13.61 2.467l1.16 2.742C71.856 84.642 64.23 88.74 64.23 88.74l1.382 2.67-15.273 6.888s6.334-.79 13.362-1.973c28.882-9.602 81.618-22.853 127.716-10.931l-.37-1.112c-2.562-8.45-2.248-21.643-1.351-26.634.897-4.99-3.622-10.896-3.622-10.896-2.793-1.705-8.365 2.616-20.096 6.022z" fill="#F3BEB5"/>
  <path d="M190.478 85.294c-18.265 6.073-31.275 3.4-47.647.036-5.046-1.04-10.264-2.103-16.077-2.97-9.992-1.534-26.348.857-47.186 6.88-15.789 4.59-28.759 9.725-28.907 9.774-.52.173-1.089-.05-1.261-.569-.173-.518.05-1.087.57-1.26 2.104-.864 52.276-20.588 77.059-16.727 5.837.94 11.056 2.004 16.175 3.019 16.373 3.365 29.283 5.987 47.549-.332.519-.173 1.113.124 1.261.569.172.519-.126 1.111-.571 1.26l-.965.32z" fill="#7B3031"/>
  <path d="M188.052 105.528c-10.692 3.554-30.882 5.821-42.979 5.645-1.979-.001-4.206-.002-6.605-.027-20.83-.155-38.394-.407-42.004-2.088-2.72-1.236-3.88-3.237-4.941-4.942-.741-1.236-1.358-2.348-2.47-2.966-2.62-1.68-15.306-5.613-23.051-4.355-7.745 1.258-15.465 2.343-15.564 2.293-.47.074-.99-.247-1.063-.717-.074-.47.1-.938.521-1.16l14.332-6.494-.888-1.68c-.247-.495-.098-1.038.373-1.36.074-.024 2.03-1.086 4.703-1.974 2.821-.938 5.32-1.357 7.423-1.233l-.444-1.087a1.32 1.32 0 01-.024-.816c.075-.271.347-.444.644-.543.297-.099 7.35-2.197 12.274-2.516l-.642-1.186c-.148-.198-.172-.52-.098-.791a.822.822 0 01.545-.593c.149-.05 3.317-1.432 6.807-2.592 1.188-.395 2.302-.765 3.217-.987-.148-.198-.246-.494-.172-.766a.962.962 0 01.645-.79c.222-.075 5.296-1.679 9.155-1.974-.074-.223-.049-.396-.024-.569.075-.271.248-.494.521-.666.148-.05 2.797-1.26 6.212-2.395 3.787-1.259 6.954-1.9 9.404-1.974.025-.173.099-.444.223-.568.124-.123.719-.815 2.575-1.432 1.41-.469 3.266-.84 5.444-.987 3.859-.295 12.521-3.01 20.862-5.7 4.257-1.333 8.637-2.79 12.572-3.85 1.139-.297 2.252-.667 3.366-1.038 3.415-1.135 6.237-2.32 8.564-3.258 1.584-.691 3.044-1.26 4.232-1.654 1.56-.519 3.317-.938 4.8-.196.099.05.222.173.346.296.173.272 4.84 6.376 3.795 11.663-.848 4.644-1.186 17.762 1.351 26.139.64 2.174 1.578 4.25 2.342 6.053 2.22 5.189 4.193 9.637-1.229 13.415-1.115.864-2.823 1.679-5.05 2.42zm-130.93-9.403c2.597-.37 5.567-.863 8.61-1.38 8.116-1.382 21.247 2.65 24.387 4.651 1.458.915 2.322 2.274 3.112 3.658.963 1.655 1.9 3.237 4.027 4.176 3.511 1.632 26.221 1.737 41.188 1.865 2.399.026 4.626.026 6.605.027 11.751.127 32.015-2.165 42.335-5.596 2.079-.691 3.589-1.357 4.604-2.024 3.962-2.717 2.952-5.509.559-10.97-.789-1.877-1.727-3.953-2.392-6.201-2.635-8.673-2.296-22.286-1.424-27.103.747-3.953-2.537-8.87-3.302-9.933-.643-.197-1.583-.05-3.068.444-1.114.37-2.5.914-4.084 1.605-2.327.938-5.223 2.148-8.713 3.308-1.113.37-2.301.765-3.44 1.061a345.381 345.381 0 00-12.473 3.9c-8.86 2.863-17.226 5.48-21.333 5.775-2.004.172-3.661.394-4.924.814-.519.172-.94.395-1.237.493l.074.223c.098.296.073.716-.1.939-.224.32-.521.42-.941.394-2.226-.247-5.715.419-10.022 1.85-2.079.692-3.836 1.358-4.9 1.877l.172.272c.198.346.247.74.024 1.062-.223.321-.57.519-.916.469-2.35-.124-6.26.764-8.512 1.43.247.248.37.618.221.915-.124.37-.446.642-.817.765-1.336.197-2.994.666-5 1.333-2.3.765-4.479 1.654-5.642 2.123l.888 1.68c.173.272.148.692-.001.988-.223.322-.496.494-.916.47-3.612-.2-9.75 1.43-12.249 2.096l.716 1.655c.123.371.073.717-.15 1.038a.824.824 0 01-.965.32c-2.127-.444-4.923-.173-8.19.913-1.485.493-2.698 1.061-3.49 1.407l.913 1.754c.148.198.172.519.098.79a.822.822 0 01-.545.594l-8.788 4.073zM268.295 169.811c-.569.272-5.871 6.397-5.871 6.397s-16.869 16.968-23.27 30.703c-6.4 13.734-10.05 24.085-10.05 24.085s6.849 2.744 16.439-9.581c9.59-12.326 21.372-36.163 21.372-36.163l7.463-13.018-6.083-2.423z" fill="#7B3031"/>
  <path d="M234.521 231.664c-3.49 1.161-5.666.32-5.765.27-.47-.173-.741-.741-.567-1.21.049-.099 3.675-10.524 10.026-24.16 6.35-13.635 22.452-29.936 23.418-30.998 3.568-4.15 5.649-6.323 6.119-6.644.273-.173.52-.173.817-.025l6.156 2.398c.272.075.445.346.593.544.099.297.099.544-.05.84l-7.463 13.018c-.1.197-11.882 24.035-21.496 36.286-3.916 5.088-7.853 8.373-11.788 9.681zm-4.031-1.458c.767.074 1.905.025 3.464-.494 2.45-.814 6.337-3.012 10.971-8.915 9.416-12.103 21.173-35.768 21.322-36.064l6.943-12.104-4.55-1.78c-.941.889-3.196 3.532-5.302 5.878l-.074.025c-.198.148-16.77 17.017-23.096 30.48-5.284 11.141-8.586 20.059-9.678 22.974z" fill="#7B3031"/>
  <path d="M276.887 163.909s-6.894 12.746-10.239 16.822c-3.345 4.075-3.399 8.127-3.399 8.127s-7.707 9.559-14.374 19.266c-6.667 9.707-11.413 25.691-11.859 26.086-.421.469 2.294 5.164 15.178-10.397 12.885-15.561 22.453-30.431 22.453-30.431l7.767-18.057-5.527-11.416z" fill="#E25C32"/>
  <path d="M239.933 236.039c-2.525.839-3.513-.396-3.784-.718-.346-.543-.37-1.112-.023-1.556.074-.272.422-1.211.819-2.248 1.763-4.867 5.81-16.255 11.015-23.912 5.998-8.744 12.962-17.562 14.25-19.143.125-1.111.649-4.743 3.648-8.374 3.295-3.977 10.09-16.525 10.139-16.624.149-.296.496-.494.892-.543.346.049.741.247.84.544l5.427 11.613c.099.296.099.543.024.815l-7.767 18.058c.025.074-.049.099-.049.099-.124.123-9.742 15.092-22.503 30.529-5.476 6.595-9.81 10.423-12.928 11.46zm-1.903-1.755c.198.099.594.05 1.262-.172 1.93-.642 5.595-3.013 11.988-10.818 12.24-14.77 21.56-29.146 22.353-30.233l7.519-17.564-4.391-9.488c-2.009 3.631-6.745 11.956-9.445 15.241-3.098 3.828-3.201 7.485-3.177 7.559a.799.799 0 01-.223.568c-.05.099-7.756 9.657-14.374 19.266-5.13 7.386-9.128 18.675-10.841 23.443-.323 1.26-.547 1.828-.671 2.198z" fill="#7B3031"/>
  <path d="M282.943 168.234c-.62.618-29.251 45.203-31.221 57.382-1.97 12.18 31.664-36.456 35.658-45.522 3.995-9.065-4.437-11.86-4.437-11.86z" fill="#F4987F"/>
  <path d="M252.906 228.433c-.891.296-1.41-.025-1.657-.272-.791-.643-.691-1.828-.492-2.718 2.045-12.698 31.221-57.629 31.469-57.876.248-.247.693-.395.99-.247.173.025 3.907 1.336 5.51 4.918 1.036 2.372.884 5.139-.456 8.301-3.25 7.337-29.127 45.821-35.364 47.894zm30.381-58.914c-3.619 5.484-28.78 45.129-30.6 56.271-.075.271-.075.518-.026.667 5.471-2.889 30.331-38.73 33.879-46.659 1.116-2.594 1.292-4.793.503-6.671-.937-2.075-2.791-3.188-3.756-3.608z" fill="#7B3031"/>
  <path d="M252.51 228.483c-.297.098-.569.024-.866-.124a1.003 1.003 0 01-.295-1.384l31.137-49.699a1.007 1.007 0 011.386-.296c.42.272.617.865.295 1.384l-31.137 49.699a.89.89 0 01-.52.42zM237.287 235.272c-.297.099-.644.049-.866-.124-.445-.346-.494-.988-.221-1.408.273-.42 29.614-39.15 35.971-57.233.149-.543.718-.815 1.287-.592.544.148.815.717.592 1.285-6.407 18.428-35.004 56.17-36.194 57.8-.297.099-.421.223-.569.272z" fill="#7B3031"/>
  <path d="M283.161 76.378s-9.814-24.807-28.759-28.716c0 0-17.352-11.024-38.538-4.063 0 0-15.558-1.66-28.429 3.277-.297.099-.495.247-.792.346 1.161 1.754 3.901 6.276 3.129 10.155-.922 4.916-1.211 18.183 1.351 26.633 2.044 6.646 5.798 11.49 4.061 15.442 0 0 1.901 3.237 10.737.3 8.835-2.938 12.652-8.075 12.652-8.075s5.505 9.118 14.663 5.662c0 0 .456 10.302 12.777 9.664 0 0-6.3 12.548 6.136 18.457 0 0-10.061 12.893 2.913 23.891 0 0-.724 4.768.902 10.154 1.626 5.387 5.267 20.557 5.267 20.557s3.635 1.261 6.107 3.238c2.446 1.903 1.035 3.114 4.747 1.879 3.713-1.234 5.101-4 6.757-2.246 1.729 1.73 4.08 1.36 4.822 1.36.668.025 13.065-21.218 6.543-47.532 0 0 4.178-16.205-1-29.795 0 0 3.119-20.134-6.046-30.588z" fill="#F26F4D"/>
  <path opacity=".7" d="M263.677 144.758c-5.425-13.59 1.492-25.026 1.492-25.026-6.645-7.34-7.194-23.127-7.194-23.127-8.903-1.732-13.611-15.149-13.611-15.149-11.904 3.876-17.953-5.638-17.953-5.638-9.886 11.93-29.799 10.565-34.598 10.02 2.071 5.733 5.034 9.934 3.421 13.515 0 0 1.901 3.237 10.736.3 8.836-2.937 12.652-8.075 12.652-8.075s5.505 9.118 14.663 5.662c0 0 .457 10.302 12.778 9.664 0 0-6.3 12.548 6.136 18.457 0 0-10.061 12.893 2.912 23.891 0 0-.723 4.768.903 10.154 1.551 5.411 5.267 20.557 5.267 20.557s3.635 1.261 6.106 3.238c1.804 1.458 1.481 2.471 2.768 2.373l1.98-.494c-10.768-14.036-8.458-40.322-8.458-40.322z" fill="#D35840"/>
  <path opacity=".6" d="M283.161 76.378s-9.814-24.807-28.759-28.716c0 0-17.352-11.024-38.537-4.063 0 0-15.559-1.66-28.43 3.277-.297.099-.495.247-.792.346 1.161 1.754 3.901 6.276 3.129 10.155-.2 1.136-.35 2.668-.501 4.447 9.081-1.208 16.774-.39 16.774-.39 21.161-7.036 38.538 4.062 38.538 4.062 18.895 4.008 28.758 28.717 28.758 28.717 9.14 10.379 6.046 30.588 6.046 30.588 5.178 13.589 1.001 29.795 1.001 29.795 2.706 11.118 2.075 21.371.382 29.425a6.455 6.455 0 002.869.198c.668.025 13.065-21.218 6.544-47.532 0 0 4.177-16.205-1.001-29.795.025.074 3.144-20.06-6.021-30.514z" fill="#F3BEB5"/>
  <path d="M283.984 185.257c-.074.024-.222.074-.321.024-.074.025-.173-.024-.248 0-1.063.025-3.414.148-5.242-1.632-.346-.296-.42-.272-.643-.198-.371.124-.842.445-1.387.791-.94.642-2.104 1.358-3.663 1.876-2.451.815-3.341.864-4.329-.619-.296-.395-.617-.865-1.284-1.384-2.324-1.779-5.785-3.016-5.81-3.09-.297-.148-.544-.395-.642-.692-.05-.148-3.667-15.244-5.268-20.556-1.33-4.497-1.127-8.598-.951-10.056-9.687-8.551-6.754-18.828-3.334-23.916-3.313-1.78-5.462-4.276-6.546-7.29-1.454-4.126-.385-8.351.385-10.5-3.563-.051-6.456-1.064-8.581-2.992-2.347-2.101-3.16-4.794-3.505-6.326-7.152 2.049-12.068-3.067-13.896-5.34-1.585 1.68-5.449 5.186-12.206 7.433-9.355 3.11-11.726-.3-11.948-.72a.88.88 0 01-.048-.89c.992-2.223-.241-4.941-1.746-8.474-.789-1.878-1.726-3.954-2.391-6.202-2.636-8.673-2.297-22.286-1.425-27.103.648-3.508-1.845-7.783-2.981-9.463-.172-.272-.172-.519-.098-.79a.823.823 0 01.545-.594l.149-.049c.223-.074.421-.222.718-.32.594-.198 1.237-.495 1.906-.717 11.805-3.924 24.94-2.858 26.82-2.66 20.22-6.64 37.203 3.025 39.033 4.063 7.914 1.732 15.452 7.293 21.872 16.19 4.445 6.177 6.912 11.86 7.356 12.947 3.878 4.473 6.071 11.07 6.629 19.693.314 5.657-.236 10.203-.361 11.315 4.857 12.873 1.547 27.72 1.025 29.869 3.346 13.787 1.525 25.917-.662 33.723-2.46 7.732-5.808 14.279-6.922 14.649zm-7.169-3.708c1.039-.346 1.93-.148 2.696.668 1.136 1.186 2.843 1.112 3.66 1.088 1.883-2.52 11.928-22.405 6.022-46.371-.049-.148-.024-.321.001-.494.024-.173 4.053-16.082-.952-29.153-.049-.149-.099-.297-.074-.47.025-.173 2.97-19.838-5.849-29.747-.099-.05-.148-.198-.173-.272-.024-.074-2.466-6.177-7.182-12.676-4.297-5.98-11.387-13.419-20.81-15.472l-.297-.148c-.198-.1-17.254-10.728-37.746-3.915-.149.05-.297.099-.396.05-.173-.026-14.075-1.413-26.177 2.61l-1.485.494c1.333 2.273 3.331 6.3 2.634 9.908-.847 4.644-1.186 17.763 1.351 26.139.641 2.174 1.578 4.25 2.318 5.98 1.504 3.533 2.861 6.621 1.991 9.462.767.569 3.19 1.656 9.352-.392 8.39-2.79 12.108-7.73 12.108-7.73.173-.222.52-.42.866-.37.346.05.643.198.816.47.197.346 5.258 8.376 13.451 5.241.297-.099.643-.049.866.124.222.173.395.445.419.766 0 0 .243 3.706 3.06 6.227 2.026 1.878 5.018 2.694 8.729 2.448.322-.024.717.173.89.445.173.272.222.667.073.964-.049.099-2.654 5.409-.904 10.425.961 2.891 3.185 5.115 6.597 6.698.296.148.445.346.543.642.099.297.024.568-.224.815-.421.469-9.342 12.326 2.791 22.533.247.247.346.543.37.864.025.075-.674 4.67.853 9.76 1.429 4.793 4.48 17.443 5.12 20.112 1.137.445 3.832 1.607 5.834 3.164.915.766 1.359 1.359 1.68 1.828.124.124.198.346.272.322.074-.025.495 0 1.831-.445 1.337-.444 2.352-1.111 3.243-1.654.693-.395 1.238-.741 1.832-.938z" fill="#7B3031"/>
  <path d="M218.893 92.64a.929.929 0 01-1.137-.445c-.321-.47-.123-1.111.372-1.358.347-.198 8.765-5.384 7.293-14.772-1.496-9.957-10.349-31.874-10.423-32.096-.172-.519.051-1.087.571-1.26.52-.173 1.088.05 1.261.569.37.865 8.976 22.287 10.546 32.466 1.668 10.723-8.136 16.699-8.26 16.822l-.223.075zM234.67 97.932c-.669.222-1.139.296-1.213.321-.544.099-1.088-.297-1.087-.791-.099-.544.298-1.087.793-1.087.321-.024 7.225-1.332 9.365-10.522 1.318-5.706 1.546-9.98 1.649-13.143.103-2.42.179-4.175.725-5.509.273-.667.819-2 1.44-3.606 2.06-5.213 5.113-13.142 7.294-16.502.273-.42.892-.543 1.386-.296.42.272.543.89.295 1.384-2.082 3.162-5.234 11.289-7.096 16.106-.67 1.704-1.142 3.014-1.489 3.705-.422.964-.474 2.545-.551 4.793-.152 3.261-.282 7.585-1.7 13.489-1.989 8.152-7.361 10.844-9.811 11.658zM246.531 107.818l-.222.074c-.545.099-1.064-.223-1.162-.766-.098-.544.224-1.063.768-1.161.075-.025 4.133-1.21 11.344-10.027 7.607-9.362 24.765-20.005 25.507-20.499.471-.32 1.114-.123 1.336.297.321.47.122 1.112-.299 1.334-.198.149-17.578 10.866-25.012 20.005-6.888 8.546-11.22 10.397-12.26 10.743zM254.944 125.683c-1.559.518-2.4.715-2.475.74-.544.099-1.063-.223-1.161-.766-.099-.544.224-1.062.768-1.161.074-.025 5.32-1.11 12.674-5.53 3.565-2.173 5.62-3.68 7.428-4.939 1.906-1.457 3.64-2.692 6.734-4.297 5.892-3.111 10.172-3.629 10.321-3.678.544-.099 1.014.321 1.112.865.098.543-.323 1.013-.867 1.111 0 0-4.108.543-9.653 3.456-2.946 1.556-4.531 2.741-6.462 4.124-1.783 1.334-3.838 2.84-7.552 5.063-4.778 2.741-8.565 4.247-10.867 5.012zM255.432 150.216c-.446.148-.99-.001-1.162-.52-.247-.494-.024-1.062.471-1.309.075-.024 6.486-3.308 12.032-6.469 2.203-1.309 3.689-2.297 4.778-2.988 1.758-1.161 2.625-1.778 3.986-1.654.593.049 2.647-.222 4.849-.542 3.143-.469 7.027-.937 9.897-.986.569-.024.964.421.988.989.024.568-.422.963-.991.988-2.795.024-6.581.541-9.649.985-2.846.37-4.503.592-5.27.518-.594-.05-1.139.296-2.698 1.308-1.065.766-2.625 1.778-4.903 3.112-5.62 3.185-12.106 6.494-12.155 6.592-.099-.049-.099-.049-.173-.024zM189.49 65.208c-.223.074-.396.05-.569.025-12.835-4.13-15.344-14.655-15.492-15.1-.098-.544.224-1.062.768-1.16.545-.1 1.064.222 1.162.765 0 0 .591 2.52 2.615 5.387 2.692 3.88 6.572 6.623 11.469 8.206.544.148.815.716.666 1.26-.075.272-.322.519-.619.617zM291.618 174.24c-59.993 19.945-106.407 23.439-135.623 22.615-35.524-.949-65.942-8.864-81.487-21.147-6.722-5.339-9.906-10.948-9.206-16.284.925-7.387 5.072-19.22 19.661-33.619 8.695-8.57 17.113-14.003 17.163-14.102.47-.321 1.089-.197 1.335.297.321.47.197 1.087-.298 1.334-.347.198-32.906 21.559-35.981 46.288-.55 4.546 2.486 9.71 8.516 14.456 15.199 11.986 45.147 19.728 80.275 20.727 31.615.849 83.35-3.261 150.795-28.071.52-.172 1.089.05 1.261.569.173.519-.051 1.087-.571 1.26-5.321 2.098-10.642 3.95-15.84 5.677z" fill="#7B3031"/>
  <path d="M100.572 108.269c9.021-2.999 13.907-12.732 10.913-21.738-2.994-9.006-12.735-13.876-21.756-10.877-9.021 3-13.907 12.731-10.913 21.738 2.994 9.006 12.734 13.876 21.756 10.877z" fill="#F4ECEA"/>
  <path d="M100.793 108.936c-9.355 3.11-19.54-1.982-22.646-11.322-3.105-9.34 2.005-19.517 11.36-22.627 9.355-3.11 19.541 1.982 22.646 11.322 3.031 9.364-2.004 19.517-11.36 22.627zM89.926 76.247c-8.687 2.888-13.4 12.275-10.516 20.947 2.883 8.673 12.278 13.37 20.965 10.482s13.399-12.275 10.516-20.948c-2.957-8.647-12.352-13.344-20.965-10.481z" fill="#7B3031"/>
  <path d="M99.69 100.906c5.208-1.731 8.029-7.35 6.301-12.549-1.729-5.198-7.352-8.01-12.56-6.278-5.207 1.73-8.028 7.35-6.3 12.548 1.729 5.2 7.352 8.011 12.56 6.279z" fill="#7B3031"/>
  <path d="M100.011 101.87c-5.717 1.901-11.947-1.214-13.845-6.922-1.897-5.707 1.228-11.932 6.945-13.833 5.717-1.9 11.947 1.214 13.845 6.922 1.897 5.707-1.228 11.932-6.945 13.833zm-6.284-18.902c-4.678 1.555-7.282 6.62-5.705 11.363 1.553 4.67 6.695 7.241 11.373 5.686 4.678-1.555 7.257-6.693 5.705-11.363-1.627-4.645-6.695-7.241-11.373-5.686z" fill="#7B3031"/>
  <path d="M98.713 92.012a3.206 3.206 0 002.034-4.051 3.206 3.206 0 00-4.055-2.027 3.205 3.205 0 00-2.034 4.05 3.205 3.205 0 004.055 2.028z" fill="#F4ECEA"/>
  <path d="M196.532 52.413c2.97-.74 6.087-.789 9.105-1.134 2.87-.296 5.716-.665 8.684-.417 1.534.148 2.131-2.273.523-2.397-3.142-.272-6.185-.002-9.302.294-3.266.345-6.532.443-9.724 1.257-1.584.444-.82 2.742.714 2.397zM220.757 48.393c6.752.965 13.58.918 20.208 2.748 1.533.396 2.056-2 .522-2.396-6.603-1.756-13.455-1.783-20.208-2.748-1.583-.297-2.081 2.173-.522 2.396zM243.706 54.428l.124.37a1.234 1.234 0 001.582.792 1.236 1.236 0 00.794-1.581l-.124-.37a1.234 1.234 0 00-1.582-.792 1.236 1.236 0 00-.794 1.58zM255.035 55.518c7.023 2.523 13.178 6.403 16.41 13.396.641 1.433 3.017.643 2.375-.79-3.527-7.635-9.879-12.109-17.644-14.878-1.483-.495-2.649 1.704-1.141 2.272zM270.024 77.289c-.05.098-.05.098 0 0l-.1.197c-.049.1-.173.223-.247.247-.496.494-.373 1.359.096 1.779.569.47 1.286.396 1.782-.098.322-.272.545-.593.743-.988a1.224 1.224 0 00-.542-1.631c-.717-.42-1.361-.124-1.732.494zM276.939 86.432c2.544 3.188 4.246 6.82 5.23 10.773.345 1.532 2.72.742 2.376-.79-1.058-4.175-2.834-8.03-5.502-11.341-.988-1.236-3.092.122-2.104 1.358zM283.486 112.078c1.255 5.016 1.966 10.13 1.44 15.244-.151 1.532 2.273 2.126 2.399.52.601-5.633-.159-11.143-1.538-16.529-.344-1.532-2.72-.742-2.301.765zM284.682 143.702c1.426 6.523 1.293 13.317-1.263 19.517-.595 1.433 1.605 2.595 2.176 1.088 2.804-6.942 3.012-14.255 1.364-21.444-.32-1.458-2.622-.693-2.277.839zM270.303 148.071c1.138-.296 2.227-.741 3.439-.815 1.609-.123 1.463-2.544-.145-2.421-1.46.074-2.771.592-4.133.962-1.46.321-.696 2.619.839 2.274zM256.555 142.681c-2.199-1.903-2.369-4.893-2.835-7.536-.27-1.557-2.695-1.409-2.425.147.54 3.36.906 6.943 3.649 9.241 1.186 1.088 2.871-.79 1.611-1.852zM201.824 92.141c4.427.669 8.709-.837 12.719-2.664 1.436-.642.647-3.014-.788-2.372-3.565 1.679-7.5 3.234-11.433 2.566-1.534-.149-2.056 2.247-.498 2.47zM227.578 91.482c.593.543 1.36.618 2.127.692.692.1 1.311-.271 1.485-.988.125-.617-.295-1.383-.987-1.482-.248 0-.421-.025-.693-.1-.099-.049-.247 0-.346-.049.173.025.198.1.074-.024-.272-.075.222.173 0 0-.469-.42-1.286-.396-1.781.098-.471.568-.373 1.358.121 1.853z" fill="#7B3031"/>
</svg>
